<svg width="1024" height="1024" viewBox="0 0 1024 1024" xmlns="http://www.w3.org/2000/svg">

  <rect x="0" y="0" width="1024" height="1024" rx="230" fill="#1A0F2E"/>
  <rect x="0" y="0" width="1024" height="1024" rx="230" fill="none" stroke="#ffffff" stroke-opacity="0.06" stroke-width="4"/>

  <circle cx="512" cy="448" r="307" fill="#E8865A"/>
  <circle cx="512" cy="448" r="307" fill="#D4754A" opacity="0.3"/>

  <ellipse cx="375" cy="384" rx="43" ry="26" fill="#1A0F2E" opacity="0.85"/>
  <ellipse cx="649" cy="384" rx="43" ry="26" fill="#1A0F2E" opacity="0.85"/>

  <path d="M443 490 Q512 537 581 490" fill="none" stroke="#1A0F2E" stroke-width="13" stroke-linecap="round" opacity="0.7"/>

  <circle cx="375" cy="384" r="13" fill="#ffffff" opacity="0.5"/>
  <circle cx="649" cy="384" r="13" fill="#ffffff" opacity="0.5"/>

  <line x1="512" y1="141" x2="512" y2="77" stroke="#ffffff" stroke-width="13" stroke-linecap="round" opacity="0.9"/>
  <circle cx="512" cy="55" r="26" fill="#F59E0B"/>
  <circle cx="512" cy="55" r="42" fill="#F59E0B" opacity="0.25"/>

  <circle cx="281" cy="460" r="60" fill="#D4754A"/>
  <circle cx="743" cy="460" r="60" fill="#D4754A"/>

  <ellipse cx="512" cy="630" rx="213" ry="60" fill="#C4643A" opacity="0.5"/>

  <circle cx="800" cy="264" r="60" fill="#EF4444"/>
  <circle cx="800" cy="264" r="38" fill="#CC2222"/>
  <ellipse cx="787" cy="251" rx="13" ry="9" fill="#ffffff" opacity="0.5"/>

</svg>